#Comment line ignore any data following # character 
#Hierarchical Translation and Rotation (.htr) file 
[Header]	
#Header keywords are followed by a single value 
FileType HTR		#Single word string
DataType HTRS		#Translation followed by rotation and scale data
FileVersion 1		#integer
NumSegments 84		#integer
NumFrames 2		#integer
DataFrameRate 30		#integer, data frame rate in this file
EulerRotationOrder ZYX
CalibrationUnits mm
RotationUnits Degrees
GlobalAxisofGravity Y
BoneLengthAxis Y
ScaleFactor 1.00
[SegmentNames&Hierarchy]
#CHILD	PARENT
MASTER GLOBAL
root MASTER
chest root
L_mid_tent01 root
R_mid_tent01 root
spine01 root
Bip01_Neck chest
L_humerus chest
R_humerus chest
weapon_bone chest
Bip01_Head Bip01_Neck
eye_left_bone Bip01_Head
eye_right_bone Bip01_Head
L_forearm L_humerus
L_front_hand L_forearm
L_weapon_bone L_forearm
L_front_hand01_01 L_front_hand
L_front_hand02_01 L_front_hand
L_front_hand03_01 L_front_hand
L_front_hand01_02 L_front_hand01_01
L_front_hand02_02 L_front_hand02_01
L_front_hand03_02 L_front_hand03_01
R_forearm R_humerus
R_front_hand R_forearm
R_weapon_bone R_forearm
R_front_hand01_01 R_front_hand
R_front_hand02_01 R_front_hand
R_front_hand03_01 R_front_hand
R_front_hand01_02 R_front_hand01_01
R_front_hand02_02 R_front_hand02_01
R_front_hand03_02 R_front_hand03_01
null_rope01_connect L_mid_tent01
Rope1_Seg01 null_rope01_connect
Rope1_Seg02 Rope1_Seg01
Rope1_Seg03 Rope1_Seg02
Rope1_Seg04 Rope1_Seg03
Rope1_Seg05 Rope1_Seg04
Rope1_Seg06 Rope1_Seg05
Rope1_Seg07 Rope1_Seg06
Rope1_Seg09 Rope1_Seg07
L_mid_hand01 Rope1_Seg09
L_mid_hand02 Rope1_Seg09
L_mid_hand03 Rope1_Seg09
null_rope02_connect R_mid_tent01
Rope2_Seg01 null_rope02_connect
Rope2_Seg02 Rope2_Seg01
Rope2_Seg03 Rope2_Seg02
Rope2_Seg04 Rope2_Seg03
Rope2_Seg05 Rope2_Seg04
Rope2_Seg06 Rope2_Seg05
Rope2_Seg07 Rope2_Seg06
Rope2_Seg09 Rope2_Seg07
R_mid_hand01 Rope2_Seg09
R_mid_hand02 Rope2_Seg09
R_mid_hand03 Rope2_Seg09
spine02 spine01
spine03 spine02
pelvis spine03
null_rope03_connect pelvis
null_rope04_connect pelvis
Rope3_Seg01 null_rope03_connect
Rope3_Seg02 Rope3_Seg01
Rope3_Seg03 Rope3_Seg02
Rope3_Seg04 Rope3_Seg03
Rope3_Seg05 Rope3_Seg04
Rope3_Seg06 Rope3_Seg05
Rope3_Seg07 Rope3_Seg06
Rope3_Seg08 Rope3_Seg07
Rope3_Seg09 Rope3_Seg08
R_rear_hand01 Rope3_Seg09
R_rear_hand02 Rope3_Seg09
R_rear_hand03 Rope3_Seg09
Rope4_Seg01 null_rope04_connect
Rope4_Seg02 Rope4_Seg01
Rope4_Seg03 Rope4_Seg02
Rope4_Seg04 Rope4_Seg03
Rope4_Seg05 Rope4_Seg04
Rope4_Seg06 Rope4_Seg05
Rope4_Seg07 Rope4_Seg06
Rope4_Seg08 Rope4_Seg07
Rope4_Seg09 Rope4_Seg08
L_rear_hand01 Rope4_Seg09
L_rear_hand02 Rope4_Seg09
L_rear_hand03 Rope4_Seg09
[BasePosition]
#SegmentName Tx, Ty, Tz, Rx, Ry, Rz, BoneLength
MASTER 0.000000 0.000000 0.000000 -90.000000 0.000000 0.000000 10.000000 
root 0.000000 0.000000 0.000000 0.000000 0.000000 0.000000 10.000000 
chest 0.000000 0.000000 0.000000 0.000000 0.000000 0.000000 10.000000 
L_mid_tent01 0.000000 0.000000 0.000000 0.000000 0.000000 0.000000 10.000000 
R_mid_tent01 0.000000 0.000000 0.000000 0.000000 0.000000 0.000000 10.000000 
spine01 0.000000 0.000000 0.000000 0.000000 0.000000 0.000000 10.000000 
Bip01_Neck 0.000000 0.000000 0.000000 0.000000 0.000000 0.000000 10.000000 
L_humerus 0.000000 0.000000 0.000000 0.000000 0.000000 0.000000 10.000000 
R_humerus 0.000000 0.000000 0.000000 0.000000 0.000000 0.000000 10.000000 
weapon_bone 0.000000 0.000000 0.000000 0.000000 0.000000 0.000000 10.000000 
Bip01_Head 0.000000 0.000000 0.000000 0.000000 0.000000 0.000000 10.000000 
eye_left_bone 0.000000 0.000000 0.000000 0.000000 0.000000 0.000000 10.000000 
eye_right_bone 0.000000 0.000000 0.000000 0.000000 0.000000 0.000000 10.000000 
L_forearm 0.000000 0.000000 0.000000 0.000000 0.000000 0.000000 10.000000 
L_front_hand 0.000000 0.000000 0.000000 0.000000 0.000000 0.000000 10.000000 
L_weapon_bone 0.000000 0.000000 0.000000 0.000000 0.000000 0.000000 10.000000 
L_front_hand01_01 0.000000 0.000000 0.000000 0.000000 0.000000 0.000000 10.000000 
L_front_hand02_01 0.000000 0.000000 0.000000 0.000000 0.000000 0.000000 10.000000 
L_front_hand03_01 0.000000 0.000000 0.000000 0.000000 0.000000 0.000000 10.000000 
L_front_hand01_02 0.000000 0.000000 0.000000 0.000000 0.000000 0.000000 10.000000 
L_front_hand02_02 0.000000 0.000000 0.000000 0.000000 0.000000 0.000000 10.000000 
L_front_hand03_02 0.000000 0.000000 0.000000 0.000000 0.000000 0.000000 10.000000 
R_forearm 0.000000 0.000000 0.000000 0.000000 0.000000 0.000000 10.000000 
R_front_hand 0.000000 0.000000 0.000000 0.000000 0.000000 0.000000 10.000000 
R_weapon_bone 0.000000 0.000000 0.000000 0.000000 0.000000 0.000000 10.000000 
R_front_hand01_01 0.000000 0.000000 0.000000 0.000000 0.000000 0.000000 10.000000 
R_front_hand02_01 0.000000 0.000000 0.000000 0.000000 0.000000 0.000000 10.000000 
R_front_hand03_01 0.000000 0.000000 0.000000 0.000000 0.000000 0.000000 10.000000 
R_front_hand01_02 0.000000 0.000000 0.000000 0.000000 0.000000 0.000000 10.000000 
R_front_hand02_02 0.000000 0.000000 0.000000 0.000000 0.000000 0.000000 10.000000 
R_front_hand03_02 0.000000 0.000000 0.000000 0.000000 0.000000 0.000000 10.000000 
null_rope01_connect 0.000000 0.000000 0.000000 0.000000 0.000000 0.000000 10.000000 
Rope1_Seg01 0.000000 0.000000 0.000000 0.000000 0.000000 0.000000 10.000000 
Rope1_Seg02 0.000000 0.000000 0.000000 0.000000 0.000000 0.000000 10.000000 
Rope1_Seg03 0.000000 0.000000 0.000000 0.000000 0.000000 0.000000 10.000000 
Rope1_Seg04 0.000000 0.000000 0.000000 0.000000 0.000000 0.000000 10.000000 
Rope1_Seg05 0.000000 0.000000 0.000000 0.000000 0.000000 0.000000 10.000000 
Rope1_Seg06 0.000000 0.000000 0.000000 0.000000 0.000000 0.000000 10.000000 
Rope1_Seg07 0.000000 0.000000 0.000000 0.000000 0.000000 0.000000 10.000000 
Rope1_Seg09 0.000000 0.000000 0.000000 0.000000 0.000000 0.000000 10.000000 
L_mid_hand01 0.000000 0.000000 0.000000 0.000000 0.000000 0.000000 10.000000 
L_mid_hand02 0.000000 0.000000 0.000000 0.000000 0.000000 0.000000 10.000000 
L_mid_hand03 0.000000 0.000000 0.000000 0.000000 0.000000 0.000000 10.000000 
null_rope02_connect 0.000000 0.000000 0.000000 0.000000 0.000000 0.000000 10.000000 
Rope2_Seg01 0.000000 0.000000 0.000000 0.000000 0.000000 0.000000 10.000000 
Rope2_Seg02 0.000000 0.000000 0.000000 0.000000 0.000000 0.000000 10.000000 
Rope2_Seg03 0.000000 0.000000 0.000000 0.000000 0.000000 0.000000 10.000000 
Rope2_Seg04 0.000000 0.000000 0.000000 0.000000 0.000000 0.000000 10.000000 
Rope2_Seg05 0.000000 0.000000 0.000000 0.000000 0.000000 0.000000 10.000000 
Rope2_Seg06 0.000000 0.000000 0.000000 0.000000 0.000000 0.000000 10.000000 
Rope2_Seg07 0.000000 0.000000 0.000000 0.000000 0.000000 0.000000 10.000000 
Rope2_Seg09 0.000000 0.000000 0.000000 0.000000 0.000000 0.000000 10.000000 
R_mid_hand01 0.000000 0.000000 0.000000 0.000000 0.000000 0.000000 10.000000 
R_mid_hand02 0.000000 0.000000 0.000000 0.000000 0.000000 0.000000 10.000000 
R_mid_hand03 0.000000 0.000000 0.000000 0.000000 0.000000 0.000000 10.000000 
spine02 0.000000 0.000000 0.000000 0.000000 0.000000 0.000000 10.000000 
spine03 0.000000 0.000000 0.000000 0.000000 0.000000 0.000000 10.000000 
pelvis 0.000000 0.000000 0.000000 0.000000 0.000000 0.000000 10.000000 
null_rope03_connect 0.000000 0.000000 0.000000 0.000000 0.000000 0.000000 10.000000 
null_rope04_connect 0.000000 0.000000 0.000000 0.000000 0.000000 0.000000 10.000000 
Rope3_Seg01 0.000000 0.000000 0.000000 0.000000 0.000000 0.000000 10.000000 
Rope3_Seg02 0.000000 0.000000 0.000000 0.000000 0.000000 0.000000 10.000000 
Rope3_Seg03 0.000000 0.000000 0.000000 0.000000 0.000000 0.000000 10.000000 
Rope3_Seg04 0.000000 0.000000 0.000000 0.000000 0.000000 0.000000 10.000000 
Rope3_Seg05 0.000000 0.000000 0.000000 0.000000 0.000000 0.000000 10.000000 
Rope3_Seg06 0.000000 0.000000 0.000000 0.000000 0.000000 0.000000 10.000000 
Rope3_Seg07 0.000000 0.000000 0.000000 0.000000 0.000000 0.000000 10.000000 
Rope3_Seg08 0.000000 0.000000 0.000000 0.000000 0.000000 0.000000 10.000000 
Rope3_Seg09 0.000000 0.000000 0.000000 0.000000 0.000000 0.000000 10.000000 
R_rear_hand01 0.000000 0.000000 0.000000 0.000000 0.000000 0.000000 10.000000 
R_rear_hand02 0.000000 0.000000 0.000000 0.000000 0.000000 0.000000 10.000000 
R_rear_hand03 0.000000 0.000000 0.000000 0.000000 0.000000 0.000000 10.000000 
Rope4_Seg01 0.000000 0.000000 0.000000 0.000000 0.000000 0.000000 10.000000 
Rope4_Seg02 0.000000 0.000000 0.000000 0.000000 0.000000 0.000000 10.000000 
Rope4_Seg03 0.000000 0.000000 0.000000 0.000000 0.000000 0.000000 10.000000 
Rope4_Seg04 0.000000 0.000000 0.000000 0.000000 0.000000 0.000000 10.000000 
Rope4_Seg05 0.000000 0.000000 0.000000 0.000000 0.000000 0.000000 10.000000 
Rope4_Seg06 0.000000 0.000000 0.000000 0.000000 0.000000 0.000000 10.000000 
Rope4_Seg07 0.000000 0.000000 0.000000 0.000000 0.000000 0.000000 10.000000 
Rope4_Seg08 0.000000 0.000000 0.000000 0.000000 0.000000 0.000000 10.000000 
Rope4_Seg09 0.000000 0.000000 0.000000 0.000000 0.000000 0.000000 10.000000 
L_rear_hand01 0.000000 0.000000 0.000000 0.000000 0.000000 0.000000 10.000000 
L_rear_hand02 0.000000 0.000000 0.000000 0.000000 0.000000 0.000000 10.000000 
L_rear_hand03 0.000000 0.000000 0.000000 0.000000 0.000000 0.000000 10.000000 
#Beginning of Data. Separated by tabs
#Fr	Tx	Ty	Tz	Rx	Ry	Rz	SF
[MASTER]
7 0.000000 0.000000 0.000000 0.001660 0.001660 0.001660 0.000000
8 0.000000 0.000000 0.000000 0.001660 0.001660 0.001660 0.000000
[root]
7 244.929428 102.152382 1055.476563 -88.581917 -10.449947 -90.639961 1088.327271
8 288.779419 117.793701 1149.540771 -88.581917 -10.449947 -90.639961 1191.097412
[chest]
7 -84.512650 -34.090519 0.000000 -0.551161 3.525609 145.442627 91.129311
8 -84.512650 -34.090519 0.000000 0.003029 3.592735 145.604492 91.129311
[L_mid_tent01]
7 27.299253 22.178593 -249.918549 -37.228916 48.039135 40.390709 252.381500
8 27.299248 22.178614 -249.918549 -31.481924 47.295982 43.758156 252.381500
[R_mid_tent01]
7 23.228794 24.509907 226.238495 179.257584 -26.978613 99.531937 228.744751
8 23.228794 24.509907 226.238495 176.030334 -25.833704 98.266594 228.744751
[spine01]
7 -0.361383 -0.195265 0.000000 0.001913 0.001361 19.154276 0.410763
8 -0.361383 -0.195265 0.000000 0.001914 0.001359 19.250856 0.410763
[Bip01_Neck]
7 165.484543 71.581718 0.000119 176.643677 -1.657967 43.431911 180.302734
8 165.484543 71.581718 0.000119 176.643677 -1.657967 43.431911 180.302734
[L_humerus]
7 -13.983130 -135.272980 -120.471481 159.692825 34.742699 -152.090820 181.680161
8 -13.983130 -135.272980 -120.471481 164.127975 31.033203 -154.001312 181.680161
[R_humerus]
7 -13.983309 -135.273102 125.287651 -177.190109 -38.733234 -152.993805 184.909012
8 -13.983309 -135.273102 125.287651 -178.208771 -31.622618 -153.449280 184.909012
[weapon_bone]
7 235.964890 -300.705902 0.000000 0.000000 -89.951546 -128.212341 382.234833
8 235.964890 -300.705902 0.000000 0.000000 -89.951546 -128.212341 382.234833
[Bip01_Head]
7 213.402267 185.832520 10.266954 -3.244738 11.112257 -40.831501 283.160126
8 213.418884 185.786133 10.865860 -3.058744 11.111991 -40.827404 283.164581
[eye_left_bone]
7 -24.626970 125.451866 -64.772606 0.000000 -90.000000 -99.840431 143.318359
8 -24.626970 125.451866 -64.772606 0.000000 -90.000000 -99.840431 143.318359
[eye_right_bone]
7 -24.626970 125.451866 64.327362 0.000000 -89.972023 80.156387 143.117676
8 -24.626970 125.451866 64.327362 0.000000 -89.965736 80.156380 143.117676
[L_forearm]
7 322.776093 0.000000 -0.000119 0.000464 0.002301 -67.185631 322.776093
8 322.776093 0.000000 -0.000119 0.000452 0.002303 -67.774429 322.776093
[L_front_hand]
7 241.149185 -0.042021 -3.300071 167.122437 -1.835190 -27.425682 241.171753
8 241.149185 -0.042021 -3.300071 164.655396 -1.835849 -27.425171 241.171753
[L_weapon_bone]
7 156.183838 0.000000 0.000000 0.000014 0.000007 0.000001 156.183838
8 156.183838 0.000000 0.000000 0.000014 0.000007 0.000001 156.183838
[L_front_hand01_01]
7 86.095154 20.947098 -0.655860 -0.366594 -0.477154 75.385574 88.609184
8 86.095154 20.947098 -0.655860 -0.366594 -0.477154 75.385574 88.609184
[L_front_hand02_01]
7 86.935165 -11.437475 24.513514 154.399796 -59.883835 -61.369587 91.046425
8 86.935165 -11.437475 24.513514 154.399796 -59.883835 -61.369587 91.046425
[L_front_hand03_01]
7 86.637497 -14.123976 -20.424902 -153.913849 58.118107 -62.702866 90.126129
8 86.637497 -14.123976 -20.424902 -153.913849 58.118130 -62.702866 90.126129
[L_front_hand01_02]
7 71.020905 -0.000179 0.000030 0.000334 -0.002323 -106.379700 71.020905
8 71.020905 -0.000179 0.000030 0.000334 -0.002323 -106.379700 71.020905
[L_front_hand02_02]
7 71.020927 -0.000119 0.000060 0.000334 -0.002323 -106.379700 71.020927
8 71.020927 -0.000119 0.000060 0.000334 -0.002323 -106.379700 71.020927
[L_front_hand03_02]
7 71.020905 -0.000060 0.000060 0.000334 -0.002323 -106.379700 71.020905
8 71.020905 -0.000060 0.000060 0.000334 -0.002323 -106.379700 71.020905
[R_forearm]
7 322.776428 -0.000060 0.000030 0.151472 -0.148545 -46.352016 322.776428
8 322.776428 -0.000060 0.000030 0.152426 -0.147566 -47.090073 322.776428
[R_front_hand]
7 238.847015 -0.006795 2.210259 -171.670349 -10.642957 -26.315395 238.857239
8 238.847015 -0.006795 2.210259 160.155869 -10.644691 -26.315491 238.857239
[R_weapon_bone]
7 155.664093 0.002503 -0.000030 0.003487 0.001180 -90.988930 155.664078
8 155.664093 0.002503 -0.000030 0.003487 0.001180 -90.988930 155.664078
[R_front_hand01_01]
7 87.624611 14.231146 22.918642 -154.633499 -59.950619 61.746044 91.683487
8 87.624611 14.231146 22.918642 -154.633484 -59.950619 61.746037 91.683487
[R_front_hand02_01]
7 89.356956 14.367283 -19.491137 154.602661 58.302849 63.744389 92.579636
8 89.356956 14.367283 -19.491137 154.602661 58.302864 63.744389 92.579636
[R_front_hand03_01]
7 87.286232 -22.307278 -0.143439 0.162155 -0.423168 -75.767921 90.091743
8 87.286232 -22.307278 -0.143439 0.162155 -0.423168 -75.767921 90.091743
[R_front_hand01_02]
7 71.020905 0.000060 0.000119 0.002323 -0.000334 106.381714 71.020905
8 71.020905 0.000060 0.000119 0.002323 -0.000334 106.381714 71.020905
[R_front_hand02_02]
7 71.020844 -0.000030 -0.000119 0.002323 -0.000334 106.381714 71.020836
8 71.020844 -0.000030 -0.000119 0.002323 -0.000334 106.381714 71.020836
[R_front_hand03_02]
7 71.020905 0.000000 0.000030 0.002323 -0.000334 106.381714 71.020905
8 71.020905 0.000000 0.000030 0.002323 -0.000334 106.381714 71.020905
[null_rope01_connect]
7 328.732483 0.000000 -0.000238 -165.087036 -33.414726 -152.310898 328.732483
8 328.732483 0.000000 -0.000238 -162.535904 -36.549038 -155.229019 328.732483
[Rope1_Seg01]
7 -0.000019 -0.000062 0.000025 114.422394 26.190735 145.726852 0.000070
8 -0.000016 -0.000061 0.000030 114.361229 35.296253 143.108932 0.000070
[Rope1_Seg02]
7 139.999863 -0.000179 0.000000 0.166348 3.046891 -6.096988 139.999863
8 139.999863 -0.000179 0.000000 -0.597692 6.192441 -4.662967 139.999863
[Rope1_Seg03]
7 139.999924 0.000060 -0.000060 0.599919 4.577631 -9.364540 139.999924
8 139.999924 0.000060 -0.000060 -1.800851 10.016117 -7.275932 139.999924
[Rope1_Seg04]
7 139.999924 -0.000060 -0.000119 2.418112 7.226853 -15.747890 139.999924
8 139.999924 -0.000060 -0.000119 -5.820796 15.969922 -11.135333 139.999924
[Rope1_Seg05]
7 139.999832 0.000119 -0.000060 3.291828 4.349844 -9.892586 139.999832
8 139.999832 0.000119 -0.000060 0.176493 5.169518 -6.335494 139.999832
[Rope1_Seg06]
7 139.999954 0.000119 -0.000060 3.214391 2.363970 -6.130767 139.999954
8 139.999954 0.000119 -0.000060 1.201125 3.330759 -4.903096 139.999954
[Rope1_Seg07]
7 139.999985 0.000060 0.000000 4.033193 1.609151 -5.268966 139.999985
8 139.999985 0.000060 0.000000 0.373610 3.256475 -3.981326 139.999985
[Rope1_Seg09]
7 121.602913 0.000119 -0.000089 -89.793175 -1.359789 0.847147 121.602913
8 121.602913 0.000119 -0.000089 -89.793175 -1.359789 0.847147 121.602913
[L_mid_hand01]
7 103.859421 1.038730 8.195221 109.056206 -40.604691 -13.201402 104.187431
8 103.859421 1.038730 8.195221 109.056206 -40.604698 -13.201405 104.187431
[L_mid_hand02]
7 105.572853 -4.139662 -10.864139 -146.713593 31.476524 -37.902313 106.211075
8 105.572853 -4.139662 -10.864139 -146.713593 31.476524 -37.902313 106.211075
[L_mid_hand03]
7 104.641464 17.579376 -3.913581 -14.267233 12.322316 43.898396 106.179977
8 104.641464 17.579376 -3.913581 -14.267231 12.322314 43.898396 106.179977
[null_rope02_connect]
7 328.732849 0.000179 -0.000119 -178.272919 61.633087 0.513888 328.732849
8 328.732849 0.000179 -0.000119 -170.020493 62.586231 6.727385 328.732849
[Rope2_Seg01]
7 -0.000016 0.000083 0.000095 -116.405807 56.619095 -15.457082 0.000127
8 -0.000012 0.000084 0.000092 -116.930084 58.264595 -15.014038 0.000125
[Rope2_Seg02]
7 139.999741 -0.000060 -0.000119 -17.007113 5.952902 17.313614 139.999756
8 139.999741 -0.000060 -0.000119 -15.270831 6.273908 15.405360 139.999756
[Rope2_Seg03]
7 140.000107 0.000030 0.000000 -16.268660 1.628953 25.086458 140.000107
8 140.000107 0.000030 0.000000 -15.320669 3.116425 21.363810 140.000107
[Rope2_Seg04]
7 139.999802 0.000000 -0.000060 -8.092269 -4.096785 21.129175 139.999802
8 139.999802 0.000000 -0.000060 -9.278580 -2.297717 20.019640 139.999802
[Rope2_Seg05]
7 139.999985 -0.000060 0.000119 -2.425859 -10.525758 13.108780 139.999985
8 139.999985 -0.000060 0.000119 -4.000213 -9.354673 15.923278 139.999985
[Rope2_Seg06]
7 139.999893 -0.000030 -0.000119 -0.427490 -9.150105 7.960795 139.999893
8 139.999893 -0.000030 -0.000119 -0.754437 -6.943701 8.841077 139.999893
[Rope2_Seg07]
7 139.999893 0.000060 -0.000060 0.375634 -4.242121 4.745208 139.999893
8 139.999893 0.000060 -0.000060 0.111874 -3.131540 4.660470 139.999893
[Rope2_Seg09]
7 121.338966 0.000089 -0.000060 33.793236 -1.359788 -0.847141 121.338966
8 121.338966 0.000089 -0.000060 33.793236 -1.359788 -0.847141 121.338966
[R_mid_hand01]
7 104.680779 11.144459 -10.335981 -37.204079 31.906813 37.576260 105.778534
8 104.680779 11.144459 -10.335981 -37.204079 31.906813 37.576260 105.778534
[R_mid_hand02]
7 104.070427 2.443552 8.231699 70.367455 -42.427380 14.067813 104.424065
8 104.070427 2.443552 8.231699 70.367455 -42.427380 14.067807 104.424065
[R_mid_hand03]
7 106.028137 -11.221827 -5.996406 -169.893616 12.226658 -47.211018 106.788818
8 106.028137 -11.221827 -5.996406 -169.893616 12.226661 -47.211018 106.788818
[spine02]
7 129.756927 0.001550 0.000119 -0.275972 -4.049634 -3.948184 129.756927
8 129.756927 0.001550 0.000119 -0.254827 -4.051155 -4.247736 129.756927
[spine03]
7 78.614006 0.083599 -4.898959 1.516190 3.996264 10.891611 78.766541
8 78.614006 0.083539 -4.898961 1.529066 3.991394 11.077904 78.766541
[pelvis]
7 169.435242 0.051022 0.000000 -0.021656 -0.189951 2.793457 169.435257
8 169.435242 0.051022 0.000000 -0.022917 -0.189720 3.170872 169.435257
[null_rope03_connect]
7 -1.257226 -2.466202 137.391083 -11.833034 -88.090126 83.450211 137.418976
8 -1.257226 -2.466202 137.391083 -11.678381 -88.068924 82.933701 137.418976
[null_rope04_connect]
7 -1.259640 -2.480268 -137.844437 -11.833034 -88.090126 83.450211 137.872513
8 -1.259640 -2.480268 -137.844437 -11.678381 -88.068924 82.933701 137.872513
[Rope3_Seg01]
7 0.000010 0.000038 -0.000114 -115.379532 9.188526 -29.325592 0.000121
8 0.000010 0.000038 -0.000114 -124.536942 0.882576 -34.933029 0.000121
[Rope3_Seg02]
7 139.999924 -0.000119 0.000060 4.910638 4.348537 19.887297 139.999924
8 139.999924 -0.000119 0.000060 9.359090 -6.606823 25.377834 139.999924
[Rope3_Seg03]
7 139.999924 -0.000119 0.000119 1.321492 0.345562 7.122647 139.999924
8 139.999924 -0.000119 0.000119 3.638597 -8.716876 11.995188 139.999924
[Rope3_Seg04]
7 139.999924 0.000119 0.000000 1.094525 6.473820 13.873520 139.999924
8 139.999924 0.000119 0.000000 0.376316 8.031070 9.284603 139.999924
[Rope3_Seg05]
7 139.999924 -0.000238 0.000060 1.277290 9.127368 16.002310 139.999924
8 139.999924 -0.000238 0.000060 2.927854 19.044985 9.622360 139.999924
[Rope3_Seg06]
7 139.999893 -0.000119 -0.000060 0.438380 4.078071 7.242426 139.999893
8 139.999893 -0.000119 -0.000060 3.130131 10.477938 5.213821 139.999893
[Rope3_Seg07]
7 139.999771 0.000060 -0.000119 0.373491 2.250188 4.061151 139.999771
8 139.999771 0.000060 -0.000119 2.222067 5.392920 2.765840 139.999771
[Rope3_Seg08]
7 139.999985 -0.000060 0.000000 0.410628 1.343605 2.390641 139.999985
8 139.999985 -0.000060 0.000000 1.726496 3.229384 1.505146 139.999985
[Rope3_Seg09]
7 90.185997 -0.000179 -0.000060 89.793228 -1.359877 -0.847183 90.185997
8 90.185997 -0.000179 -0.000060 89.793228 -1.359877 -0.847183 90.185997
[R_rear_hand01]
7 103.366196 -6.073594 -10.757982 -164.755127 19.627697 -40.352165 104.101845
8 103.366196 -6.073594 -10.757982 -164.755127 19.627697 -40.352161 104.101845
[R_rear_hand02]
7 100.509819 12.039542 -7.992327 -30.792648 24.782448 38.141541 101.543350
8 100.509819 12.039542 -7.992327 -30.792645 24.782444 38.141533 101.543350
[R_rear_hand03]
7 101.539970 5.215704 5.435467 82.448349 -41.048244 8.840375 101.819031
8 101.539970 5.215704 5.435467 82.448349 -41.048244 8.840377 101.819031
[Rope4_Seg01]
7 -0.000017 -0.000064 -0.000153 49.759327 -10.615236 -166.654068 0.000166
8 -0.000017 -0.000061 -0.000153 48.107880 -9.810560 -166.747559 0.000165
[Rope4_Seg02]
7 139.999985 0.000060 0.000119 -9.212736 7.253216 -2.582183 139.999985
8 139.999985 0.000060 0.000119 -7.400673 5.482729 -2.045178 139.999985
[Rope4_Seg03]
7 139.999924 0.000000 -0.000238 -7.670583 10.283160 -1.918822 139.999924
8 139.999924 0.000000 -0.000238 -7.016366 7.888530 -1.843613 139.999924
[Rope4_Seg04]
7 139.999985 0.000000 0.000119 -4.188984 13.961570 0.779903 139.999985
8 139.999985 0.000000 0.000119 -5.488163 11.380044 -0.704798 139.999985
[Rope4_Seg05]
7 139.999802 -0.000060 -0.000119 -2.832179 15.076786 0.679768 139.999802
8 139.999802 -0.000060 -0.000119 -4.291069 15.622673 -0.062737 139.999802
[Rope4_Seg06]
7 139.999924 0.000000 0.000060 -3.538281 13.812417 -5.053589 139.999924
8 139.999924 0.000000 0.000060 -3.095220 13.859011 -1.904689 139.999924
[Rope4_Seg07]
7 139.999802 0.000000 0.000000 -1.494330 12.149796 -4.839231 139.999802
8 139.999802 0.000000 0.000000 -1.016157 9.728047 -1.052753 139.999802
[Rope4_Seg08]
7 139.999924 0.000000 0.000119 -1.502087 7.951072 -2.016622 139.999924
8 139.999924 0.000000 0.000119 -1.716063 6.143976 -0.258855 139.999924
[Rope4_Seg09]
7 90.185791 0.000060 0.000060 -135.617828 2.228885 0.850567 90.185791
8 90.185791 0.000060 0.000060 -135.617828 2.228885 0.850567 90.185791
[L_rear_hand01]
7 101.696655 -8.392275 -7.654577 -31.684452 -23.583012 144.025742 102.329041
8 101.696655 -8.392275 -7.654577 -31.684452 -23.583008 144.025742 102.329041
[L_rear_hand02]
7 102.726799 -1.568258 5.773216 82.701546 38.753956 171.553619 102.900848
8 102.726799 -1.568258 5.773216 82.701546 38.753956 171.553619 102.900848
[L_rear_hand03]
7 104.552910 9.721220 -10.420293 -163.975403 -19.004421 -142.009338 105.519653
8 104.552910 9.721220 -10.420293 -163.975388 -19.004421 -142.009338 105.519653
